<svg width="181" height="90" viewBox="0 0 181 90" fill="none" xmlns="http://www.w3.org/2000/svg">
<path d="M111.448 63V55.992H116.44V63H111.448ZM97.4319 75.816C96.1839 75.816 94.9039 75.72 93.5919 75.528C92.2799 75.368 90.9039 75.144 89.4639 74.856L90.6639 68.28C92.2319 68.472 93.5599 68.6 94.6479 68.664C95.7679 68.76 96.6959 68.808 97.4319 68.808C99.4799 68.808 100.952 68.456 101.848 67.752C102.744 67.048 103.192 65.96 103.192 64.488V44.856L104.536 45.864H99.9759C99.0799 45.864 98.2959 45.976 97.6239 46.2C96.9519 46.424 96.4239 46.92 96.0399 47.688C95.6879 48.424 95.5119 49.576 95.5119 51.144C95.5119 52.616 95.6719 53.704 95.9919 54.408C96.3119 55.08 96.7919 55.512 97.4319 55.704C98.1039 55.896 98.9519 55.992 99.9759 55.992H103.192V63H99.9759C97.2879 63 94.9839 62.568 93.0639 61.704C91.1759 60.84 89.7359 59.528 88.7439 57.768C87.7519 56.008 87.2559 53.8 87.2559 51.144C87.2559 48.488 87.7519 46.248 88.7439 44.424C89.7359 42.6 91.1759 41.224 93.0639 40.296C94.9839 39.336 97.2879 38.856 99.9759 38.856H111.448V64.488C111.448 66.792 110.856 68.792 109.672 70.488C108.52 72.216 106.888 73.528 104.776 74.424C102.696 75.352 100.248 75.816 97.4319 75.816ZM116.44 63V55.992C116.6 55.992 116.728 56.072 116.824 56.232C116.952 56.392 117.048 56.632 117.112 56.952C117.208 57.24 117.272 57.608 117.304 58.056C117.368 58.472 117.4 58.952 117.4 59.496C117.4 60.04 117.368 60.536 117.304 60.984C117.272 61.4 117.208 61.768 117.112 62.088C117.048 62.376 116.952 62.6 116.824 62.76C116.728 62.92 116.6 63 116.44 63ZM116.461 63V55.992H128.461V63H116.461ZM128.461 63V55.992C128.621 55.992 128.765 56.072 128.893 56.232C129.021 56.392 129.117 56.632 129.181 56.952C129.245 57.24 129.293 57.608 129.325 58.056C129.389 58.472 129.421 58.952 129.421 59.496C129.421 60.04 129.389 60.536 129.325 60.984C129.293 61.4 129.245 61.768 129.181 62.088C129.117 62.376 129.021 62.6 128.893 62.76C128.765 62.92 128.621 63 128.461 63ZM116.461 63C116.301 63 116.157 62.92 116.029 62.76C115.901 62.6 115.805 62.376 115.741 62.088C115.677 61.768 115.629 61.4 115.597 60.984C115.533 60.536 115.501 60.04 115.501 59.496C115.501 58.76 115.533 58.136 115.597 57.624C115.661 57.112 115.773 56.712 115.933 56.424C116.061 56.136 116.237 55.992 116.461 55.992V63ZM128.461 63V55.992H140.461V63H128.461ZM140.461 63V55.992C140.621 55.992 140.765 56.072 140.893 56.232C141.021 56.392 141.117 56.632 141.181 56.952C141.245 57.24 141.293 57.608 141.325 58.056C141.389 58.472 141.421 58.952 141.421 59.496C141.421 60.04 141.389 60.536 141.325 60.984C141.293 61.4 141.245 61.768 141.181 62.088C141.117 62.376 141.021 62.6 140.893 62.76C140.765 62.92 140.621 63 140.461 63ZM128.461 63C128.301 63 128.157 62.92 128.029 62.76C127.901 62.6 127.805 62.376 127.741 62.088C127.677 61.768 127.629 61.4 127.597 60.984C127.533 60.536 127.501 60.04 127.501 59.496C127.501 58.76 127.533 58.136 127.597 57.624C127.661 57.112 127.773 56.712 127.933 56.424C128.061 56.136 128.237 55.992 128.461 55.992V63ZM140.461 63V55.992H152.461V63H140.461ZM152.461 63V55.992C152.621 55.992 152.765 56.072 152.893 56.232C153.021 56.392 153.117 56.632 153.181 56.952C153.245 57.24 153.293 57.608 153.325 58.056C153.389 58.472 153.421 58.952 153.421 59.496C153.421 60.04 153.389 60.536 153.325 60.984C153.293 61.4 153.245 61.768 153.181 62.088C153.117 62.376 153.021 62.6 152.893 62.76C152.765 62.92 152.621 63 152.461 63ZM140.461 63C140.301 63 140.157 62.92 140.029 62.76C139.901 62.6 139.805 62.376 139.741 62.088C139.677 61.768 139.629 61.4 139.597 60.984C139.533 60.536 139.501 60.04 139.501 59.496C139.501 58.76 139.533 58.136 139.597 57.624C139.661 57.112 139.773 56.712 139.933 56.424C140.061 56.136 140.237 55.992 140.461 55.992V63ZM160.477 61.8C158.941 60.232 157.789 58.648 157.021 57.048C156.285 55.448 155.917 53.72 155.917 51.864C155.917 49.912 156.285 48.152 157.021 46.584C157.789 44.984 158.813 43.608 160.093 42.456C161.373 41.272 162.845 40.376 164.509 39.768C166.205 39.16 167.965 38.856 169.789 38.856C170.749 38.856 171.741 38.952 172.765 39.144C173.821 39.304 174.813 39.544 175.741 39.864L173.437 46.488C172.861 46.296 172.301 46.152 171.757 46.056C171.213 45.928 170.653 45.864 170.077 45.864C168.893 45.864 167.853 46.12 166.957 46.632C166.061 47.144 165.373 47.848 164.893 48.744C164.413 49.608 164.173 50.616 164.173 51.768C164.173 52.76 164.365 53.704 164.749 54.6C165.165 55.464 165.773 56.28 166.573 57.048L160.477 61.8ZM152.461 63V55.992H176.125V63H152.461ZM152.461 63C152.301 63 152.157 62.92 152.029 62.76C151.901 62.6 151.805 62.376 151.741 62.088C151.677 61.768 151.629 61.4 151.597 60.984C151.533 60.536 151.501 60.04 151.501 59.496C151.501 58.76 151.533 58.136 151.597 57.624C151.661 57.112 151.773 56.712 151.933 56.424C152.061 56.136 152.237 55.992 152.461 55.992V63Z" fill="black"/>
<path d="M21.0645 52.0006C22.8978 61.3339 31.3284 74.5006 50.0645 74.5006C56.0645 74.5006 72.0645 74.5006 76.0645 52.0006" stroke="black" stroke-width="8" stroke-linecap="round"/>
<path d="M0.627508 71.9182L18.1854 49.1756L26.9992 59.0439L11.4029 80.7333L0.627508 71.9182Z" fill="black"/>
<line x1="37.7696" y1="32.2929" x2="58.7696" y2="53.2929" stroke="#EB2A00" stroke-width="2"/>
<circle cx="60" cy="55" r="2" stroke="#EB2A00" stroke-width="2"/>
<circle cx="36" cy="31" r="2" stroke="#EB2A00" stroke-width="2"/>
<path d="M42 33.0269C50.4296 26.4363 64.5261 37.0486 57.1477 48.6281" stroke="#EB2A00" stroke-width="2" stroke-linecap="round"/>
<path d="M53.2148 52.6013C44.7852 59.1919 30.6887 48.5796 38.0671 37" stroke="#EB2A00" stroke-width="2" stroke-linecap="round"/>
</svg>
