<svg width="48" height="48" viewBox="0 0 48 48" fill="none" xmlns="http://www.w3.org/2000/svg">
<path d="M46.875 10.7625L34.2 6.2625C33.9 6.15 33.6 6.1875 33.3375 6.3C32.925 6.4875 10.875 14.2875 10.875 14.2875C10.3125 14.475 9.9375 15 9.9375 15.6V20.85C9.9375 21.3375 10.2375 21.75 10.6875 21.9L13.6125 22.95C14.3625 23.2125 15.1125 22.6875 15.1125 21.9V17.5125C15.1125 16.9125 15.4875 16.3875 16.05 16.2L35.9625 9.3L43.1625 11.85L23.625 18.7125C23.2125 18.8625 22.875 19.275 22.875 19.7625V42.5625L2.625 35.4V12.6L24.375 4.9125C24.975 4.6875 25.275 4.05 25.05 3.4875C24.825 2.8875 24.1875 2.5875 23.625 2.8125L1.125 10.7625C0.675 10.9125 0.375 11.3625 0.375 11.8125V36.1875C0.375 36.675 0.675 37.0875 1.125 37.2375L23.625 45.1875C23.7375 45.225 23.8875 45.2625 24 45.2625C24.075 45.2625 24.1125 45.2625 24.1875 45.2625H24.225C24.2625 45.2625 24.3 45.225 24.375 45.225L46.875 37.275C47.325 37.125 47.625 36.675 47.625 36.225V11.85C47.625 11.325 47.325 10.9125 46.875 10.7625Z" fill="white"/>
</svg>
