<svg width="140" height="32" viewBox="0 0 140 32" fill="none" xmlns="http://www.w3.org/2000/svg">
<path d="M8.01699 0.849243H0L2.54777 3.73672V21.2314L0 24.1189H7.33758C14.1316 24.1189 17.8344 21.5711 17.8344 17.4607C17.8344 14.1316 15.3546 11.9236 10.7346 11.482C14.0297 10.8365 16.4756 8.9002 16.4756 6.01273C16.4756 2.78555 13.4862 0.849243 8.01699 0.849243ZM7.30361 11.3461H6.96391V1.73247H7.30361C10.5987 1.73247 11.9915 3.36305 11.9915 6.28449C11.9915 8.93417 10.7686 11.3461 7.30361 11.3461ZM7.60934 23.2357H6.96391V12.1953H7.84713C11.6518 12.1953 13.2824 14.1316 13.2824 17.4607C13.2824 21.2314 11.0403 23.2357 7.60934 23.2357Z" fill="white"/>
<path d="M25.1247 17.8684V7.43945H18.5005L21.0483 10.0552V19.0234C21.0483 22.2166 22.6789 24.4586 25.4644 24.4586C27.3668 24.4586 28.9294 23.3036 29.9825 21.6051V24.3227L36.3689 24.1189L34.0589 21.673V7.43945H27.4687L29.9825 10.0552V20.6879C29.2351 21.707 28.3179 22.2845 27.4347 22.2845C25.4984 22.2845 25.1247 20.62 25.1247 17.8684Z" fill="white"/>
<path d="M46.5187 24.1189H55.6227L53.041 21.5372V12.5011C53.041 9.30784 51.4104 7.0658 48.6248 7.0658C47.266 7.0658 45.058 8.11888 43.6991 10.2251V7.13374L37.3127 9.40975L39.6227 12.0255V21.5372L37.041 24.1189H46.145L43.6991 21.5372V10.9045C44.7862 9.44372 46.0771 9.20592 46.6546 9.20592C48.5909 9.20592 48.9645 10.8705 48.9645 13.6561V21.5372L46.5187 24.1189Z" fill="white"/>
<path d="M70.3288 4.14432L70.1929 4.11035L65.8787 7.23562C65.573 7.13371 65.3352 7.06577 64.418 7.06577C60.4095 7.06577 57.1483 9.8853 57.1483 13.4862C57.1483 15.6943 58.4053 17.4947 60.4774 18.3439C58.2014 19.5329 57.1483 20.9597 57.1483 22.3185C57.1483 23.5754 58.0316 24.5945 59.1866 25.0701C57.3522 25.8514 56.2991 26.7006 56.2991 28.1614C56.2991 30.3015 58.8469 32 62.7534 32C67.9509 32 71.0762 28.467 71.0762 24.4925C71.0762 23.2356 70.7704 22.4883 70.2948 21.707H61.7683C60.6473 21.707 59.8999 21.2994 59.8999 20.2463C59.8999 19.6348 60.1377 19.1253 61.1568 18.5478C61.5305 18.7176 62.0061 18.8195 63.0252 18.8195C67.0677 18.8195 70.2609 15.8301 70.2609 12.2633C70.2609 11.0064 69.8532 9.8853 69.0719 8.9681C69.8532 7.33753 70.159 6.14857 70.3288 4.14432ZM62.9573 7.77914C64.5539 7.77914 65.8787 10.4968 65.8787 14.3015C65.8787 16.6794 65.505 18.1741 64.2821 18.1741C62.6855 18.1741 61.4965 15.3885 61.4965 11.414C61.4965 9.2059 61.7004 7.77914 62.9573 7.77914ZM60.0019 25.5456H68.0528C68.3925 25.8853 68.5284 26.8705 68.5284 27.482C68.5284 29.9958 65.9127 31.3885 63.229 31.3885C60.2736 31.3885 58.8808 29.9618 58.8808 27.8556C58.8808 26.7686 59.2545 26.1231 60.0019 25.5456Z" fill="white"/>
<path d="M81.0391 21.2655V24.1189H87.6633L85.1495 21.9109H85.1155V10.0553L85.8629 7.47351H73.192V12.9088H73.4298C75.468 9.51173 77.0306 8.11895 78.865 8.11895C80.5296 8.11895 81.0391 9.23997 81.0391 13.2485C74.5508 15.8302 72.3767 17.6307 72.3767 20.5521C72.3767 22.8621 73.7015 24.4586 75.8077 24.4586C77.2684 24.4586 78.5253 23.7114 81.0391 21.2655ZM81.0391 13.9619V20.4502C79.9521 21.5712 79.3066 21.775 78.6612 21.775C77.4383 21.775 76.8608 21.0277 76.8608 19.4311C76.8608 17.257 77.9478 15.4905 81.0391 13.9619Z" fill="white"/>
<path d="M90.8605 9.17197V21.1975L88.3467 24.1189H97.4507L94.9369 21.1975V0L88.5505 1.9363L90.8605 4.55202V5.84289L88.5505 6.55626L90.8605 9.17197Z" fill="white"/>
<path d="M113.743 15.0488C113.743 11.414 111.739 7.0658 107.051 7.0658C101.956 7.0658 98.4568 11.7537 98.4568 16.5435C98.4568 20.2123 100.393 24.5265 105.149 24.5265C110.176 24.5265 113.743 19.8726 113.743 15.0488ZM105.217 8.01696C107.799 8.01696 109.497 13.3163 109.497 18.1401C109.497 21.0616 108.852 23.5754 107.017 23.5754C104.707 23.5754 102.771 18.7516 102.771 13.4522C102.771 10.7346 103.348 8.01696 105.217 8.01696Z" fill="white"/>
<path d="M113.644 7.47351L115.886 9.8854L121.831 24.8662H122.578L126.892 13.9279L131.206 24.8662H131.954L137.729 9.23996L139.733 7.47351H133.686L136.744 9.23996L133.007 19.397L129.168 9.30791L131.988 7.47351H123.02L125.262 9.8854L126.451 12.5691L123.631 19.7029L119.657 9.30791L122.646 7.47351H113.644Z" fill="white"/>
</svg>
