<svg width="48" height="48" viewBox="0 0 48 48" fill="none" xmlns="http://www.w3.org/2000/svg">
<path d="M10.125 1.875C6.825 1.875 4.125 4.575 4.125 7.875C4.125 11.175 6.825 13.875 10.125 13.875C13.425 13.875 16.125 11.175 16.125 7.875C16.125 4.575 13.425 1.875 10.125 1.875ZM10.125 4.125C12.1875 4.125 13.875 5.8125 13.875 7.875C13.875 9.9375 12.1875 11.625 10.125 11.625C8.0625 11.625 6.375 9.9375 6.375 7.875C6.375 5.8125 8.0625 4.125 10.125 4.125ZM20.25 4.5C19.6125 4.5 19.125 4.9875 19.125 5.625C19.125 6.2625 19.6125 6.75 20.25 6.75H39C39.6375 6.75 40.125 6.2625 40.125 5.625C40.125 4.9875 39.6375 4.5 39 4.5H20.25ZM20.25 9C19.6125 9 19.125 9.4875 19.125 10.125C19.125 10.7625 19.6125 11.25 20.25 11.25H27.75C28.3875 11.25 28.875 10.7625 28.875 10.125C28.875 9.4875 28.3875 9 27.75 9H20.25ZM10.125 18C6.825 18 4.125 20.7 4.125 24C4.125 27.3 6.825 30 10.125 30C13.425 30 16.125 27.3 16.125 24C16.125 20.7 13.425 18 10.125 18ZM20.25 20.625C19.6125 20.625 19.125 21.1125 19.125 21.75C19.125 22.3875 19.6125 22.875 20.25 22.875H39C39.6375 22.875 40.125 22.3875 40.125 21.75C40.125 21.1125 39.6375 20.625 39 20.625H20.25ZM20.25 25.125C19.6125 25.125 19.125 25.6125 19.125 26.25C19.125 26.8875 19.6125 27.375 20.25 27.375H27.75C28.3875 27.375 28.875 26.8875 28.875 26.25C28.875 25.6125 28.3875 25.125 27.75 25.125H20.25ZM10.125 34.125C6.825 34.125 4.125 36.825 4.125 40.125C4.125 43.425 6.825 46.125 10.125 46.125C13.425 46.125 16.125 43.425 16.125 40.125C16.125 36.825 13.425 34.125 10.125 34.125ZM20.25 36.75C19.6125 36.75 19.125 37.2375 19.125 37.875C19.125 38.5125 19.6125 39 20.25 39H39C39.6375 39 40.125 38.5125 40.125 37.875C40.125 37.2375 39.6375 36.75 39 36.75H20.25ZM20.25 41.25C19.6125 41.25 19.125 41.7375 19.125 42.375C19.125 43.0125 19.6125 43.5 20.25 43.5H27.75C28.3875 43.5 28.875 43.0125 28.875 42.375C28.875 41.7375 28.3875 41.25 27.75 41.25H20.25Z" fill="white"/>
</svg>
