<svg width="135" height="32" viewBox="0 0 135 32" fill="none" xmlns="http://www.w3.org/2000/svg">
<path d="M12.9258 2.44543H0V25.0131H12.9258C22.6725 25.0131 26.2009 19.6332 26.2009 13.6594C26.2009 7.68561 23.1266 2.44543 12.9258 2.44543ZM12.821 20.9956H4.68122V6.4629H12.821C19.5284 6.4629 21.4498 9.81661 21.4498 13.6594C21.4498 17.5022 19.5284 20.9956 12.821 20.9956Z" fill="white"/>
<path d="M36.7827 0H31.5076V3.98253H36.7827V0ZM44.3635 0H39.0884V3.98253H44.3635V0ZM37.9356 25.4323C44.4683 25.4323 48.905 22.2882 48.905 16.3843C48.905 10.5153 44.4683 7.26638 37.9356 7.26638C31.3679 7.26638 26.8613 10.5153 26.8613 16.3843C26.8613 22.2882 31.3679 25.4323 37.9356 25.4323ZM37.9356 21.9389C34.3024 21.9389 31.4378 19.9825 31.4378 16.3843C31.4378 12.786 34.3373 10.7598 37.9356 10.7598C41.5338 10.7598 44.2937 12.821 44.2937 16.3843C44.2937 19.9825 41.464 21.9389 37.9356 21.9389Z" fill="white"/>
<path d="M62.3934 7.26636C57.7471 7.26636 55.2318 9.50216 54.2886 12.786V12.262L54.044 7.68557H49.7471V32H54.2886V19.4934C55.2667 22.6376 57.782 25.4323 62.3934 25.4323C67.5288 25.4323 71.686 21.869 71.686 16.3843C71.686 10.9694 67.5986 7.26636 62.3934 7.26636ZM60.9261 21.9039C56.9785 21.9039 54.4633 19.8777 54.2886 16.7686V16C54.4982 12.6812 57.2929 10.7948 60.9261 10.7948C64.8039 10.7948 67.0397 13.0306 67.0397 16.3843C67.0397 19.738 64.6292 21.9039 60.9261 21.9039Z" fill="white"/>
<path d="M85.1595 7.26636C80.5132 7.26636 77.9979 9.50216 77.0547 12.786V12.262L76.8101 7.68557H72.5132V32H77.0547V19.4934C78.0328 22.6376 80.5481 25.4323 85.1595 25.4323C90.2949 25.4323 94.4521 21.869 94.4521 16.3843C94.4521 10.9694 90.3647 7.26636 85.1595 7.26636ZM83.6922 21.9039C79.7446 21.9039 77.2294 19.8777 77.0547 16.7686V16C77.2643 12.6812 80.059 10.7948 83.6922 10.7948C87.57 10.7948 89.8058 13.0306 89.8058 16.3843C89.8058 19.738 87.3953 21.9039 83.6922 21.9039Z" fill="white"/>
<path d="M95.7334 0.69873V25.0131H100.275V0.69873H95.7334Z" fill="white"/>
<path d="M118.248 19.2489C117.689 20.8908 115.628 21.9738 112.728 21.9738C108.816 21.9738 106.475 19.9127 106.161 17.048H122.72C122.999 10.4454 119.506 7.26636 112.728 7.26636C105.986 7.26636 101.584 10.69 101.584 16.3843C101.584 22.1485 106.196 25.4323 112.833 25.4323C118.737 25.4323 122.021 22.8472 122.615 19.2489H118.248ZM112.484 10.7249C115.907 10.7249 117.934 12.1921 118.213 14.5677H106.37C106.964 12.3668 109.13 10.7249 112.484 10.7249Z" fill="white"/>
<path d="M128.09 12.8908V7.68557H123.549V25.0131H128.09V15.5459C128.684 14.3231 130.536 11.4236 134.763 11.4236V7.26636C130.641 7.26636 128.754 10.7598 128.09 12.8908Z" fill="white"/>
</svg>
