<svg width="48" height="48" viewBox="0 0 48 48" fill="none" xmlns="http://www.w3.org/2000/svg">
<path d="M24.1305 0.382319C23.6999 0.378803 23.269 0.38891 22.8377 0.412348C17.9627 0.674848 13.3877 2.7747 9.90023 6.2622C6.45023 9.7497 4.38744 14.3628 4.16244 19.2378C3.78744 26.2503 7.05023 32.8126 12.9002 36.7126C13.4252 37.0501 14.0999 36.9374 14.4749 36.4123C14.8124 35.8874 14.7004 35.2126 14.1754 34.8376C9.00038 31.3876 6.07494 25.5749 6.41244 19.3498C6.82494 10.4998 14.0998 3.14985 22.9498 2.66235C26.0248 2.47485 29.1004 3.11264 31.8004 4.46264C36.4879 6.78764 39.9376 11.3626 41.0626 16.6501L43.4627 28.1623C43.4627 28.1999 43.4626 28.2376 43.5001 28.2751C43.6126 28.6501 43.5379 29.1001 43.2379 29.4001L42.1876 30.4497C41.5876 31.0872 41.2501 31.9125 41.2501 32.8125V38.25C41.2501 39.3 40.4251 40.125 39.3751 40.125H36.3751C33.6751 40.125 31.5001 42.3 31.5001 45V46.5C31.5001 47.1375 31.9876 47.625 32.6251 47.625C33.2626 47.625 33.7501 47.1375 33.7501 46.5V45C33.7501 43.5375 34.9126 42.375 36.3751 42.375H39.3751C41.6626 42.375 43.5001 40.5375 43.5001 38.25V32.8125C43.5001 32.5125 43.6129 32.2501 43.8004 32.0251L44.8499 30.9748C45.7124 30.1124 46.0129 28.8378 45.6754 27.6753L43.2752 16.1997C42.0377 10.1997 38.1376 5.06249 32.8126 2.43749C30.122 1.09218 27.1441 0.406928 24.1305 0.382319ZM24.0001 5.99999C16.1251 5.99999 9.75008 12.375 9.75008 20.25C9.75008 28.125 16.1251 34.5 24.0001 34.5C31.8751 34.5 38.2501 28.125 38.2501 20.25C38.2501 12.375 31.8751 5.99999 24.0001 5.99999ZM24.0001 8.24999C30.6001 8.24999 36.0001 13.65 36.0001 20.25C36.0001 26.85 30.6001 32.25 24.0001 32.25C17.4001 32.25 12.0001 26.85 12.0001 20.25C12.0001 13.65 17.4001 8.24999 24.0001 8.24999ZM24.0001 11.625C19.2376 11.625 15.3751 15.4875 15.3751 20.25C15.3751 25.0125 19.2376 28.875 24.0001 28.875C28.7626 28.875 32.6251 25.0125 32.6251 20.25C32.6251 15.4875 28.7626 11.625 24.0001 11.625ZM24.0001 13.875C27.5251 13.875 30.3751 16.725 30.3751 20.25C30.3751 23.775 27.5251 26.625 24.0001 26.625C20.4751 26.625 17.6251 23.775 17.6251 20.25C17.6251 16.725 20.4751 13.875 24.0001 13.875ZM24.0001 17.25C23.2044 17.25 22.4414 17.5661 21.8788 18.1287C21.3162 18.6913 21.0001 19.4543 21.0001 20.25C21.0001 21.0456 21.3162 21.8087 21.8788 22.3713C22.4414 22.9339 23.2044 23.25 24.0001 23.25C24.7957 23.25 25.5588 22.9339 26.1214 22.3713C26.684 21.8087 27.0001 21.0456 27.0001 20.25C27.0001 19.4543 26.684 18.6913 26.1214 18.1287C25.5588 17.5661 24.7957 17.25 24.0001 17.25Z" fill="white"/>
</svg>
