<svg width="48" height="48" viewBox="0 0 48 48" fill="none" xmlns="http://www.w3.org/2000/svg">
<path d="M24 2.25C18.525 2.25 13.3125 4.275 9.2625 7.9875C5.2875 11.6625 2.8125 16.6875 2.325 22.0875C2.2875 22.6875 2.7375 23.25 3.375 23.2875C3.975 23.3625 4.5375 22.875 4.6125 22.275C5.025 17.4375 7.2375 12.975 10.8375 9.675C12.225 8.4 13.7625 7.35 15.45 6.525C15.6375 12.15 17.475 17.5125 20.6625 22.0875C17.1 25.125 12.75 27.225 8.025 28.0875C7.425 26.5875 5.925 25.5375 4.2 25.5375C1.8375 25.5 0 27.3375 0 29.625C0 31.9125 1.8375 33.75 4.125 33.75C6.15 33.75 7.875 32.25 8.175 30.3C13.35 29.4 18.075 27.1125 21.9375 23.85C22.3125 24.3 22.6875 24.75 23.1 25.2C23.4 25.5 23.6625 25.8 23.9625 26.1C23.7375 26.625 23.5875 27.1875 23.5875 27.7875C23.5875 30.075 25.425 31.9125 27.7125 31.9125C28.725 31.9125 29.6625 31.5375 30.375 30.9375C31.2375 31.425 32.1375 31.875 33.075 32.25C30.75 36.6375 27.525 40.5 23.55 43.5C17.5125 43.3875 12 40.5375 8.3625 35.6625C7.9875 35.175 7.275 35.0625 6.7875 35.4375C6.3 35.8125 6.1875 36.525 6.5625 37.0125C10.725 42.5625 17.0625 45.75 24 45.75C36 45.75 45.75 36 45.75 24C45.75 12 36 2.25 24 2.25ZM4.125 31.5C3.075 31.5 2.25 30.675 2.25 29.625C2.25 28.575 3.075 27.75 4.125 27.75C5.175 27.75 6 28.575 6 29.625C6 30.675 5.175 31.5 4.125 31.5ZM22.275 20.5125C19.275 16.125 17.6625 10.95 17.625 5.5875C19.65 4.875 21.7875 4.5 24 4.5C25.9875 4.5 27.9375 4.8 29.7375 5.3625C28.95 11.25 26.2125 16.5 22.275 20.5125ZM27.75 29.625C26.7 29.625 25.875 28.8 25.875 27.75C25.875 26.7 26.7 25.875 27.75 25.875C28.8 25.875 29.625 26.7 29.625 27.75C29.625 28.8 28.8 29.625 27.75 29.625ZM31.6875 29.025C31.8 28.6125 31.875 28.2 31.875 27.75C31.875 25.4625 30.0375 23.625 27.75 23.625C26.8875 23.625 26.1 23.8875 25.425 24.3375C25.2 24.1125 24.975 23.8875 24.75 23.6625C24.375 23.2125 24 22.7625 23.625 22.3125C27.9375 18.0375 30.9375 12.45 31.9125 6.1875C38.7375 9.225 43.5 16.05 43.5 24C43.5 26.8875 42.8625 29.625 41.7375 32.1C39.8625 31.9125 38.025 31.5375 36.225 30.975C37.875 27.3375 38.9625 23.3625 39.525 19.2C39.6 18.6 39.1875 18.0375 38.55 17.925C37.95 17.85 37.3875 18.2625 37.275 18.9C36.75 22.9125 35.6625 26.7375 34.0875 30.1875C33.2625 29.85 32.475 29.4375 31.6875 29.025ZM27.45 43.2C30.6 40.3125 33.225 36.8625 35.25 33C36.975 33.5625 38.775 33.975 40.575 34.2375C37.725 38.85 33 42.1875 27.45 43.2Z" fill="white"/>
</svg>
