<svg width="48" height="48" viewBox="0 0 48 48" fill="none" xmlns="http://www.w3.org/2000/svg">
<path d="M38.625 42.75V5.25C38.625 2.55 36.45 0.375 33.75 0.375H14.25C11.55 0.375 9.375 2.55 9.375 5.25V42.75C9.375 45.45 11.55 47.625 14.25 47.625H33.75C36.45 47.625 38.625 45.45 38.625 42.75ZM11.625 42.75V5.25C11.625 3.7875 12.7875 2.625 14.25 2.625H17.25V3.75C17.25 4.3875 17.7375 4.875 18.375 4.875H29.625C30.2625 4.875 30.75 4.3875 30.75 3.75V2.625H33.75C35.2125 2.625 36.375 3.7875 36.375 5.25V42.75C36.375 44.2125 35.2125 45.375 33.75 45.375H14.25C12.7875 45.375 11.625 44.2125 11.625 42.75Z" fill="white"/>
</svg>
