<svg width="48" height="48" viewBox="0 0 48 48" fill="none" xmlns="http://www.w3.org/2000/svg">
<path d="M24 2.8125C15.7125 2.8125 8.92499 9.22485 8.43749 17.4749C6.63749 17.8874 5.43764 19.6876 5.77514 21.5251L7.05028 28.6875C7.35028 30.375 8.81234 31.6128 10.5373 31.6128C10.7248 31.6128 10.9497 31.6122 11.1372 31.5747L14.1753 31.0503C14.7753 30.9378 15.1872 30.3753 15.0747 29.7378L13.5373 21.0747C14.2498 19.7997 14.9997 19.0499 15.8247 18.7874C17.3997 18.2999 19.5751 19.4253 22.0876 20.7378C25.0126 22.2753 28.5748 24.1128 32.6623 24.1128C33.1123 24.1128 33.5622 24.0749 34.0122 24.0374L33.1128 29.8499V29.8872C29.6628 37.5747 25.5751 38.4001 23.9626 38.4001C22.3876 38.4001 19.3125 37.6503 16.3125 32.7378C15.975 32.2128 15.3001 32.0253 14.7751 32.3628C14.2501 32.7003 14.0626 33.3751 14.4001 33.9001C17.9626 39.7876 21.9376 40.6501 23.9626 40.6501C29.7001 40.6501 33.3372 34.6126 34.9497 31.2751L36.8628 31.5747C37.0503 31.6122 37.2751 31.6128 37.4626 31.6128C39.1876 31.6128 40.6497 30.375 40.9497 28.6875L42.2248 21.5251C42.5623 19.6876 41.3625 17.9249 39.5625 17.4749C39.075 9.26235 32.25 2.8125 24 2.8125ZM24.0373 4.98779C30.8998 4.98779 36.6 10.2003 37.3125 16.9878L36.7126 16.875C35.1376 10.2 30.6 6.33765 24 6.33765C18.2625 6.33765 14.0248 9.3 12.0373 14.625C11.8123 15.225 12.1126 15.8626 12.7126 16.0876C13.3126 16.3126 13.9503 16.0124 14.1753 15.4124C15.7878 10.9499 19.2 8.47515 24 8.58765C33.3 8.81265 32.1753 21.6753 32.1753 21.6753C27.9003 22.3128 26.4372 20.4003 23.1372 18.6753C20.1747 17.1378 17.6251 15.7872 15.1501 16.5747C14.3626 16.8372 13.6497 17.2878 13.0122 17.9253L12.9748 17.7378C12.9373 17.4378 12.7501 17.1751 12.5251 17.0251C12.2626 16.8376 11.9622 16.8001 11.6997 16.8376L10.7622 16.9878C11.4747 10.2003 17.1373 4.98779 24.0373 4.98779ZM10.9497 19.3125L12.6372 29.0251L10.7248 29.3628C10.6498 29.3628 10.575 29.4001 10.5 29.4001C9.86249 29.4001 9.33734 28.95 9.22484 28.3125L7.9497 21.1501C7.8372 20.4376 8.28749 19.7626 8.99999 19.6501L10.9497 19.3125ZM37.0503 19.3125L38.9626 19.6501C39.6751 19.7626 40.1247 20.4376 40.0122 21.1501L38.7378 28.3125C38.6253 28.95 38.1001 29.4001 37.4626 29.4001C37.3876 29.4001 37.3128 29.4003 37.2378 29.3628L35.5122 29.0625L37.0503 19.3125ZM19.3498 40.2751C19.3123 40.2751 19.2753 40.275 19.2378 40.3125H19.1997C19.1622 40.3125 19.1625 40.3124 19.125 40.3499H19.0503L10.7622 43.7249C10.1997 43.9499 9.89984 44.625 10.1623 45.1875C10.3498 45.675 10.8 45.9375 11.25 45.9375C11.4 45.9375 11.5498 45.9003 11.6623 45.8628L18.9001 42.9001C19.8751 44.7751 21.7875 45.9375 24 45.9375C26.2125 45.9375 28.1248 44.7751 29.0998 42.9001L36.3376 45.8628C36.4876 45.9378 36.6375 45.9375 36.75 45.9375C37.2 45.9375 37.6128 45.6749 37.8003 45.2249C38.0253 44.6624 37.7622 43.9872 37.1997 43.7622L28.9123 40.3872C28.3498 40.1622 27.6747 40.4253 27.4497 40.9878C27.4497 41.0253 27.4123 41.0624 27.4123 41.0999C26.8498 43.0124 25.3125 43.6875 24 43.6875C22.725 43.6875 21.1501 43.0124 20.5876 41.0999C20.5876 41.0624 20.5878 41.0626 20.5503 41.0251V40.9497C20.5503 40.9497 20.5497 40.9124 20.5122 40.9124C20.5122 40.8749 20.4748 40.8378 20.4748 40.8003C20.4748 40.7628 20.4376 40.7249 20.4001 40.7249C20.3626 40.6874 20.3622 40.6501 20.3247 40.6501L20.25 40.5747L20.1753 40.5C20.1378 40.4625 20.0998 40.4628 20.0998 40.4253C20.0623 40.4253 20.0251 40.3872 20.0251 40.3872C19.9876 40.3872 19.9498 40.3499 19.9123 40.3499C19.8748 40.3499 19.8378 40.3125 19.8003 40.3125C19.7628 40.3125 19.725 40.3126 19.6875 40.2751H19.5747H19.4626H19.3498Z" fill="white"/>
</svg>
