<svg width="94" height="23" viewBox="0 0 94 23" fill="none" xmlns="http://www.w3.org/2000/svg">
<path d="M0.652344 21.9998H5.92578V15.2243H9.50533C14.5018 15.2243 17.6232 12.2626 17.6232 7.73491C17.6232 3.24982 14.5657 0.181641 9.66513 0.181641H0.652344V21.9998ZM5.92578 11.0694V4.43235H8.52521C10.8903 4.43235 12.158 5.71076 12.158 7.73491C12.158 9.7484 10.8903 11.0694 8.52521 11.0694H5.92578Z" fill="white"/>
<path d="M23.3496 22.2768C25.6295 22.2768 27.2062 21.3926 28.1011 19.72H28.2289V21.9998H33.1295V10.8777C33.1295 7.41531 30.0506 5.42312 25.8852 5.42312C21.4853 5.42312 18.9924 7.63903 18.5769 10.622L23.3816 10.7924C23.6053 9.7484 24.4683 9.1092 25.8425 9.1092C27.121 9.1092 27.9306 9.72709 27.9306 10.8244V10.8777C27.9306 11.8791 26.844 12.0922 24.0528 12.3372C20.7396 12.6142 17.9697 13.8393 17.9697 17.4615C17.9697 20.7001 20.2175 22.2768 23.3496 22.2768ZM24.9583 18.8677C23.7545 18.8677 22.9022 18.2924 22.9022 17.2058C22.9022 16.1511 23.7332 15.5119 25.214 15.2882C26.1835 15.1497 27.3766 14.9366 27.9626 14.6277V16.1831C27.9626 17.7811 26.6202 18.8677 24.9583 18.8677Z" fill="white"/>
<path d="M40.6244 12.6674C40.635 10.8031 41.7217 9.69514 43.3729 9.69514C45.0242 9.69514 46.0043 10.7818 45.9937 12.5929V21.9998H51.2032V11.5701C51.2138 7.88405 48.966 5.42312 45.5249 5.42312C43.1066 5.42312 41.2742 6.64826 40.5498 8.64045H40.3687V5.63619H35.4148V21.9998H40.6244V12.6674Z" fill="white"/>
<path d="M61.1777 22.3088C65.471 22.3088 68.2941 20.2314 68.8907 17.014L64.1073 16.8755C63.7025 17.9622 62.6372 18.5481 61.2735 18.5481C59.2707 18.5481 58.0349 17.2164 58.0349 15.2136V15.0751H68.944V13.7754C68.944 8.38477 65.6627 5.42312 61.0179 5.42312C56.0747 5.42312 52.9 8.8109 52.9 13.8819C52.9 19.1234 56.0321 22.3088 61.1777 22.3088ZM58.0349 12.0495C58.1095 10.4196 59.3985 9.18377 61.1244 9.18377C62.8396 9.18377 64.0754 10.377 64.0967 12.0495H58.0349Z" fill="white"/>
<path d="M75.9142 0.181641H70.7047V21.9998H75.9142V0.181641Z" fill="white"/>
<path d="M92.6163 10.6326C92.3393 7.394 89.6866 5.42312 85.2548 5.42312C80.823 5.42312 77.9998 7.35139 78.0211 10.6326C77.9998 13.1468 79.6085 14.7662 82.8791 15.3734L85.7342 15.9167C87.0872 16.1831 87.7051 16.6092 87.7264 17.3336C87.7051 18.1539 86.7889 18.6973 85.4572 18.6973C83.9764 18.6973 82.975 18.0581 82.7512 16.8649L77.6056 16.9927C77.9785 20.2314 80.7591 22.3088 85.4359 22.3088C89.8145 22.3088 92.9998 20.1248 93.0211 16.7583C92.9998 14.372 91.4231 12.9551 88.1632 12.3265L85.0098 11.7299C83.6248 11.4529 83.1774 10.9629 83.188 10.3343C83.1774 9.50337 84.1468 8.99201 85.3507 8.99201C86.725 8.99201 87.6838 9.7271 87.8329 10.7605L92.6163 10.6326Z" fill="white"/>
</svg>
