<svg width="156" height="32" viewBox="0 0 156 32" fill="none" xmlns="http://www.w3.org/2000/svg">
<path d="M25.2 0C18.96 0 13.0797 0.999844 8.67969 2.83984C4.67969 4.51984 2.4 6.68 2.4 8.8C2.4 10.8 4.40016 12.8398 7.96016 14.4398C8.44016 14.6798 9.04031 14.6803 9.52031 14.5203C13.8003 12.8803 19.32 12 25.2 12C31.16 12 36.7597 12.92 41.0797 14.6C41.4397 14.72 41.8402 14.72 42.1602 14.6C45.8802 12.96 48 10.8798 48 8.83984C48 6.71984 45.7203 4.55969 41.7203 2.87969C37.3203 0.999688 31.44 0 25.2 0ZM0.8 12.4797C0.64 12.4797 0.320313 12.5597 0.120313 12.8797C0.0403125 13.0397 0 13.2002 0 13.3602V20.8C0 25.92 7.31969 30.1203 17.6797 31.5203C18.1597 31.6003 18.48 31.0397 18.2 30.6797C17.32 29.3197 16.8 27.72 16.8 26C16.8 23.92 17.5598 22.0003 18.8398 20.5203C19.1198 20.2003 18.9197 19.6798 18.4797 19.6398C10.6397 18.6798 4.4 16.1998 1.6 12.8398C1.4 12.5998 1.12 12.4797 0.8 12.4797ZM49.6 12.5203C49.28 12.4803 49 12.6397 48.8 12.8797C45.24 17.0797 36.12 20 25.2 20L24.4 20.0797C21.48 20.4797 19.2 23 19.2 26C19.2 28.84 21.16 31.1998 23.8 31.8398L25.2 32C39.32 32 50.4 27.08 50.4 20.8V13.3602C50.4 13.2002 50.3597 13.0403 50.2797 12.9203C50.0797 12.6003 49.76 12.5203 49.6 12.5203ZM37.6 24C38.28 24 38.8 24.52 38.8 25.2C38.8 25.88 38.28 26.4 37.6 26.4C36.92 26.4 36.4 25.88 36.4 25.2C36.4 24.52 36.92 24 37.6 24ZM31.2 25.2C31.88 25.2 32.4 25.72 32.4 26.4C32.4 27.08 31.88 27.6 31.2 27.6C30.52 27.6 30 27.08 30 26.4C30 25.72 30.52 25.2 31.2 25.2ZM25.2 25.6C25.88 25.6 26.4 26.12 26.4 26.8C26.4 27.48 25.88 28 25.2 28C24.52 28 24 27.48 24 26.8C24 26.12 24.52 25.6 25.2 25.6Z" fill="white"/>
<path d="M72.5439 12.6378C72.4959 10.9898 71.7759 9.82174 70.5759 9.26174C69.7279 8.87774 68.6399 8.86174 67.4399 8.81374C66.3999 8.78174 63.2479 8.81374 62.3039 8.82974H60.3999V21.2937H62.3199V16.2697C62.3199 16.2697 65.4559 16.3178 67.0879 16.2858C68.0159 16.2698 68.8479 16.2538 69.5679 16.0778C71.5359 15.5818 72.6079 14.4138 72.5439 12.6378ZM70.3359 12.4298C70.3679 13.7898 69.4239 14.5098 67.5519 14.5578C66.3359 14.5898 62.3199 14.5418 62.3199 14.5418V10.3818C63.1359 10.3818 65.9359 10.3658 67.1359 10.3658C69.1519 10.3818 70.3199 10.9258 70.3359 12.4298Z" fill="white"/>
<path d="M86.5025 10.4617V8.82971H76.6785V21.2937H86.5025V19.6137H78.5825V15.7737H84.1985V14.1417H78.5825V10.4617H86.5025Z" fill="white"/>
<path d="M90.6829 8.82971V10.4777H95.9629V21.2937H97.8829V10.4777H103.163V8.82971H90.6829Z" fill="white"/>
<path d="M117.248 14.2857C115.264 13.9657 113.136 14.1417 111.12 13.9497C110.176 13.8537 109.344 13.4537 109.184 12.9737C109.024 12.4617 109.28 11.8857 109.584 11.5657C110.256 10.8617 111.776 10.4457 113.456 10.3977C115.056 10.3497 116.72 10.7017 117.52 11.5497C118.16 12.2057 118.192 13.1657 118.192 13.1657H120.064C120.064 13.1657 120.096 12.5417 119.728 11.8057C118.736 9.74172 116.976 9.22972 115.712 8.97372C114.944 8.81372 109.568 8.28572 107.696 11.1017C106.96 12.2057 107.104 13.7417 107.92 14.6377C108.912 15.7257 110.912 15.8857 113.792 15.9177C115.84 15.9497 117.536 16.0137 118.128 16.6217C118.832 17.3417 118.624 18.6217 117.264 19.1977C115.552 19.9337 111.888 19.9817 110.416 19.2137C109.008 18.4777 108.992 17.1017 108.992 17.1017H107.056C107.056 17.1017 107.088 18.8617 108.352 19.9817C110.704 22.0457 117.328 21.9337 119.344 20.1417C120.32 19.2937 120.56 18.1097 120.368 16.9897C120.08 15.2937 118.72 14.5417 117.248 14.2857Z" fill="white"/>
<path d="M130.765 14.8137L137.773 8.82971H134.973L126.573 16.1417V8.82971H124.669V21.2937H126.573V18.3977L129.405 15.9977L135.421 21.2937H138.237L130.765 14.8137Z" fill="white"/>
<path d="M152.672 8.82971L148.64 13.9657L144.528 8.82971H142L147.6 15.4057V21.3097H149.52V15.4217L155.104 8.82971H152.672Z" fill="white"/>
</svg>
