<svg width="30" height="24" viewBox="0 0 30 24" fill="none" xmlns="http://www.w3.org/2000/svg">
<path d="M30 18.1765C30 14.6471 27.6035 12.2647 24.0533 12.2647C23.1657 12.2647 22.4556 12.6176 22.2781 12.7059C22.4556 8.91176 25.6509 5.47059 29.2012 4.85294V0C23.9645 0.529415 16.4201 4.94118 16.4201 15.9706C16.4201 20.8235 19.4379 24 23.5207 24C27.2485 24 30 21.3529 30 18.1765ZM13.5799 18.1765C13.5799 14.6471 11.0947 12.2647 7.63314 12.2647C6.74556 12.2647 5.94675 12.6176 5.76923 12.7059C5.94675 8.91176 9.14201 5.47059 12.7811 4.85294V0C7.45562 0.529415 0 4.94118 0 15.9706C0 20.8235 2.92899 24 7.10059 24C10.8284 24 13.5799 21.3529 13.5799 18.1765Z" fill="white"/>
</svg>
