<svg width="48" height="48" viewBox="0 0 48 48" fill="none" xmlns="http://www.w3.org/2000/svg">
<path d="M5.24994 0.375C2.54994 0.375 0.374939 2.55 0.374939 5.25V16.3499C0.374939 18.8999 2.28773 21.1126 4.80023 21.3376C6.48773 21.4876 8.02494 20.7747 8.99994 19.5747C9.22494 19.8372 9.48744 20.0999 9.74994 20.2874V33.375C9.74994 34.0125 10.2374 34.5 10.8749 34.5H19.8002C20.5127 34.5 21.0377 33.8625 20.9252 33.1875C20.0252 28.575 21.3749 23.6251 24.9374 20.0251C25.1249 19.8376 25.3124 19.6875 25.4999 19.5C25.9499 19.125 25.9876 18.45 25.6501 18C25.3501 17.5875 25.1623 17.0625 25.1623 16.5V7.19971C25.1623 6.59971 24.7127 6.0375 24.1127 6C23.4752 5.9625 22.9123 6.4875 22.9123 7.125V16.4253C22.9123 17.7753 21.9374 18.9375 20.6249 19.125C19.0124 19.3125 17.6249 18.075 17.6249 16.5V7.19971C17.6249 6.59971 17.1746 6.0375 16.5746 6C15.9371 5.9625 15.3749 6.4875 15.3749 7.125V16.4253C15.3749 17.7753 14.4001 18.9375 13.0876 19.125C11.5126 19.3125 10.1249 18.075 10.1249 16.5V12.8247C10.1249 12.2247 9.67465 11.6625 9.07465 11.625C8.43715 11.5875 7.87494 12.1125 7.87494 12.75V16.4253C7.87494 17.7753 6.90008 18.9375 5.58758 19.125C4.01258 19.3125 2.62494 18.075 2.62494 16.5V5.25C2.62494 3.7875 3.78744 2.625 5.24994 2.625H42.7499C44.2124 2.625 45.3749 3.7875 45.3749 5.25V16.5C45.3749 17.0625 45.1871 17.5874 44.8871 18.0374C44.5496 18.5249 44.5873 19.1624 45.0373 19.5374C45.5248 19.9874 46.2749 19.9122 46.6874 19.3872C47.2874 18.5622 47.6623 17.5501 47.6623 16.4626V5.25C47.6248 2.55 45.4499 0.375 42.7499 0.375H5.24994ZM8.99994 6C8.70157 6 8.41542 6.11853 8.20444 6.3295C7.99346 6.54048 7.87494 6.82663 7.87494 7.125C7.87494 7.42337 7.99346 7.70952 8.20444 7.9205C8.41542 8.13147 8.70157 8.25 8.99994 8.25C9.29831 8.25 9.58445 8.13147 9.79543 7.9205C10.0064 7.70952 10.1249 7.42337 10.1249 7.125C10.1249 6.82663 10.0064 6.54048 9.79543 6.3295C9.58445 6.11853 9.29831 6 8.99994 6ZM31.4252 6C30.8252 6.0375 30.3749 6.56221 30.3749 7.19971V15.1128C30.3749 15.8253 31.0498 16.3499 31.7248 16.1624C32.2498 16.0499 32.6249 15.5997 32.6249 15.0747V7.125C32.6249 6.4875 32.1002 5.9625 31.4252 6ZM39.0746 6C38.4371 5.9625 37.8749 6.4875 37.8749 7.125V9V15.0747C37.8749 15.5997 38.2501 16.0499 38.7751 16.1624C39.4876 16.3124 40.1249 15.7872 40.1249 15.0747V9V7.19971C40.1249 6.59971 39.6746 6.0375 39.0746 6ZM35.2309 18.0095C32.0621 18.0095 28.8935 19.2185 26.4748 21.6372C21.6748 26.4372 21.6746 34.3128 26.5121 39.1128L34.4999 47.1372C34.7249 47.3622 34.9873 47.4749 35.2873 47.4749C35.5873 47.4749 35.8871 47.3622 36.0746 47.1372L43.9877 39.1501C48.8252 34.3126 48.8252 26.4747 43.9877 21.6372C41.569 19.2185 38.3996 18.0095 35.2309 18.0095ZM5.32465 22.875C4.68715 22.8375 4.12494 23.3625 4.12494 24V39.75H1.57465C0.974646 39.75 0.412439 40.2003 0.374939 40.8003C0.337439 41.4378 0.862439 42 1.49994 42H23.5502C24.5252 42 25.0124 40.8375 24.3749 40.125L24.3376 40.0876C24.1126 39.8626 23.8496 39.75 23.5121 39.75H6.37494V24.0747C6.37494 23.4372 5.92465 22.9125 5.32465 22.875ZM35.2499 26.4375C37.3124 26.4375 38.9999 28.125 38.9999 30.1875C38.9999 32.25 37.3124 33.9375 35.2499 33.9375C33.1874 33.9375 31.4999 32.25 31.4999 30.1875C31.4999 28.125 33.1874 26.4375 35.2499 26.4375ZM46.4999 39.75C46.2016 39.75 45.9154 39.8685 45.7044 40.0795C45.4935 40.2905 45.3749 40.5766 45.3749 40.875C45.3749 41.1734 45.4935 41.4595 45.7044 41.6705C45.9154 41.8815 46.2016 42 46.4999 42C46.7983 42 47.0845 41.8815 47.2954 41.6705C47.5064 41.4595 47.6249 41.1734 47.6249 40.875C47.6249 40.5766 47.5064 40.2905 47.2954 40.0795C47.0845 39.8685 46.7983 39.75 46.4999 39.75ZM8.99994 45.375C8.36244 45.375 7.87494 45.8625 7.87494 46.5C7.87494 47.1375 8.36244 47.625 8.99994 47.625H27.7499C28.3874 47.625 28.8749 47.1375 28.8749 46.5C28.8749 45.8625 28.3874 45.375 27.7499 45.375H8.99994ZM42.7499 45.375C42.1124 45.375 41.6249 45.8625 41.6249 46.5C41.6249 47.1375 42.1124 47.625 42.7499 47.625H46.4999C47.1374 47.625 47.6249 47.1375 47.6249 46.5C47.6249 45.8625 47.1374 45.375 46.4999 45.375H42.7499Z" fill="white"/>
</svg>
