<?xml version="1.0" encoding="UTF-8"?><svg xmlns="http://www.w3.org/2000/svg" xmlns:xlink="http://www.w3.org/1999/xlink" version="1.1" id="Layer_1" x="0px" y="0px" viewBox="0 0 16 16" xml:space="preserve"><path d="M14.854 14.146l-13-13a.5.5 0 0 0-.707.707L4 4.707V13c0 .552.449 1 1 1h6a1 1 0 0 0 1-1v-.293l2.146 2.146a.5.5 0 1 0 .708-.707zM11 12H5V5.707l6 6V12z"/><path d="M11 4v4.879l1 1V3c0-.551-.448-1-1-1H5a.977.977 0 0 0-.634.245L6.121 4H11z"/><metadata><rdf:RDF xmlns:rdf="http://www.w3.org/1999/02/22-rdf-syntax-ns#" xmlns:rdfs="http://www.w3.org/2000/01/rdf-schema#" xmlns:dc="http://purl.org/dc/elements/1.1/"><rdf:Description about="https://iconscout.com/legal#licenses" dc:title="no,phone,mobile,solid,e" dc:description="no,phone,mobile,solid,e" dc:publisher="Iconscout" dc:date="2018-03-05" dc:format="image/svg+xml" dc:language="en"><dc:creator><rdf:Bag><rdf:li>Pixel Icons</rdf:li></rdf:Bag></dc:creator></rdf:Description></rdf:RDF></metadata></svg>