<svg width="48" height="48" viewBox="0 0 48 48" fill="none" xmlns="http://www.w3.org/2000/svg">
<path d="M16.5 0.375C13.8 0.375 11.625 2.55 11.625 5.25V10.875C11.625 11.5125 12.1125 12 12.75 12C13.3875 12 13.875 11.5125 13.875 10.875V5.25C13.875 3.7875 15.0375 2.625 16.5 2.625H42.75C44.2125 2.625 45.375 3.7875 45.375 5.25V42.75C45.375 44.2125 44.2125 45.375 42.75 45.375H35.25C34.6125 45.375 34.125 45.8625 34.125 46.5C34.125 47.1375 34.6125 47.625 35.25 47.625H42.75C45.45 47.625 47.625 45.45 47.625 42.75V5.25C47.625 2.55 45.45 0.375 42.75 0.375H16.5ZM9 15.375C6.3 15.375 4.125 17.55 4.125 20.25V42.75C4.125 45.45 6.3 47.625 9 47.625H20.25C22.95 47.625 25.125 45.45 25.125 42.75V20.25C25.125 17.55 22.95 15.375 20.25 15.375H9ZM9 17.625H20.25C21.7125 17.625 22.875 18.7875 22.875 20.25V42.75C22.875 44.2125 21.7125 45.375 20.25 45.375H9C7.5375 45.375 6.375 44.2125 6.375 42.75V20.25C6.375 18.7875 7.5375 17.625 9 17.625ZM29.625 43.1528C29.3344 43.1528 29.0439 43.2564 28.8376 43.4626C28.6126 43.6876 28.5 43.95 28.5 44.25C28.5 44.55 28.6126 44.8499 28.8376 45.0374L28.9878 45.1875C29.0628 45.225 29.1378 45.2628 29.1753 45.3003C29.2503 45.3378 29.3251 45.3375 29.4001 45.375C29.4751 45.375 29.55 45.4124 29.625 45.4124C29.7 45.4124 29.7749 45.4125 29.8499 45.375C29.9249 45.375 29.9997 45.3378 30.0747 45.3003C30.1497 45.2628 30.2247 45.225 30.2622 45.1875C30.3372 45.15 30.3749 45.1124 30.4124 45.0374C30.6374 44.8124 30.75 44.55 30.75 44.25C30.75 43.95 30.6374 43.6501 30.4124 43.4626C30.2061 43.2564 29.9156 43.1528 29.625 43.1528Z" fill="white"/>
</svg>
