<svg width="122" height="32" viewBox="0 0 122 32" fill="none" xmlns="http://www.w3.org/2000/svg">
<g clip-path="url(#clip0)">
<path d="M56.1203 14.1762C55.4467 12.3801 54.0997 10.8085 52.4319 10.0067C51.2452 9.39734 49.9302 9.14075 48.7435 9.14075C47.5568 9.14075 46.306 9.2049 44.9589 9.78221C43.1628 10.552 41.8158 12.2518 41.8158 14.4328C41.8158 15.1704 42.0724 16.4213 42.6818 17.191C43.3232 18.0249 44.4778 18.6664 45.4721 19.0833C46.0173 19.3078 46.5626 19.4361 49.8661 20.3662C51.0848 20.719 52.3677 20.9435 52.3677 22.0019C52.3677 22.483 52.1432 22.7717 51.6942 23.0924C51.181 23.4773 49.9943 23.6697 49.3529 23.6697C48.1662 23.6697 46.9795 23.3811 46.1135 22.483C45.6645 22.0019 45.2796 21.136 45.0872 20.3662L41.1743 21.3605C41.4309 22.5472 41.8479 23.7339 43.0025 25.0809C44.542 26.877 46.7229 27.4222 49.2567 27.4222C50.9245 27.4222 52.3357 27.1977 53.811 26.2676C55.3184 25.3696 56.2806 23.7018 56.2806 21.9378C56.2806 19.0833 54.0997 17.2872 50.8282 16.3892L47.621 15.4912C46.5626 15.2025 45.7287 15.0101 45.7287 14.2724C45.7287 13.4064 47.1399 12.8291 48.4869 12.8933C50.0585 12.9574 51.4055 13.5668 52.047 15.2025L56.1203 14.1762Z" fill="white"/>
<path d="M63.6654 12.9895H68.6687V9.62183H63.6654V4.81091H59.3035V9.62183H56.3528V12.9895H59.3035V19.5965C59.3035 21.6812 59.111 23.4773 60.0732 24.8885C61.0033 26.2676 61.9976 26.7808 63.6012 27.0694C64.8841 27.294 67.3217 27.326 68.6687 26.9412V23.3169C67.7386 23.4452 66.6802 23.5094 65.8463 23.4452C65.1728 23.3811 64.4351 23.1245 64.0182 22.451C63.6012 21.8095 63.6654 20.687 63.6654 19.3399V12.9895Z" fill="white"/>
<path d="M85.519 26.9412V16.6137C85.519 14.4328 84.9417 12.4763 83.2418 11.033C81.991 9.97465 80.0666 9.14075 78.1743 9.14075C75.0632 9.14075 72.8502 10.2633 71.0221 11.9952L73.5238 14.8818C74.6463 13.8875 76.1537 13.2461 77.8536 13.2461C79.8421 13.2461 80.9005 14.1441 81.1892 15.3949C78.912 15.7157 75.2557 16.1006 73.0747 17.0948C70.8938 18.0891 70.0278 19.821 70.0278 22.0661C70.0278 25.3054 72.2408 27.4222 75.7368 27.4222C78.3988 27.4222 79.9704 26.8129 81.7023 24.8244V26.9412H85.519ZM80.6118 21.8095C79.8421 22.9641 78.463 23.798 76.7952 23.798C75.384 23.798 74.3256 22.9321 74.3256 21.7454C74.3256 20.5907 75.5123 19.9814 76.8273 19.6927C78.463 19.3399 80.1628 18.9871 81.1892 18.7947C81.1892 19.6927 81.2212 20.8794 80.6118 21.8095Z" fill="white"/>
<path d="M103.644 14.9139C103.195 12.7971 101.976 11.2576 100.373 10.2954C98.8975 9.39734 97.7108 9.14075 95.8505 9.14075C92.964 9.14075 90.9434 10.1029 89.3077 12.0273C87.8644 13.7272 87.1909 15.844 87.1909 18.2815C87.1909 20.6549 87.8323 22.7075 89.3077 24.5678C90.8472 26.5242 92.8998 27.4222 95.7864 27.4222C97.9994 27.4222 99.2823 27.0694 100.822 25.9469C102.169 24.9526 103.195 23.349 103.644 21.6812L99.1861 20.7511C98.9616 21.4888 98.705 22.0661 98.0956 22.6113C97.4542 23.1886 96.5882 23.349 95.7864 23.349C94.5035 23.349 93.4771 22.8358 92.7715 21.8737C92.0339 20.9115 91.8094 19.5965 91.8094 18.2815C91.8094 16.9665 92.0339 15.6195 92.7715 14.6573C93.4771 13.6951 94.5035 13.214 95.7864 13.214C96.5882 13.214 97.3579 13.4706 97.9994 14.0158C98.6729 14.5611 99.0578 15.2987 99.2823 16.0685L103.644 14.9139Z" fill="white"/>
<path d="M109.774 20.3342H111.827L116.317 26.9412H121.256L115.355 18.2494L120.839 9.62186H115.996L111.827 16.2288H109.774V3.84875H105.348L105.316 26.9412H109.774V20.3342Z" fill="white"/>
<path d="M31.2319 16.0364C32.1175 16.0364 32.8438 15.3166 32.7554 14.4354C32.4939 11.8294 31.597 9.31828 30.1329 7.12706C28.3708 4.48989 25.8662 2.43446 22.936 1.22071C20.0057 0.00694823 16.7813 -0.310626 13.6706 0.308142C10.5598 0.92691 7.70239 2.45423 5.45965 4.69696C3.21692 6.93969 1.68961 9.7971 1.07084 12.9079C0.452068 16.0186 0.769643 19.243 1.9834 22.1733C3.19716 25.1035 5.25258 27.6081 7.88976 29.3702C10.081 30.8343 12.5921 31.7312 15.1981 31.9927C16.0793 32.0811 16.7991 31.3548 16.7991 30.4692C16.7991 29.5835 16.0783 28.8759 15.1996 28.7654C13.229 28.5178 11.3351 27.8149 9.67162 26.7034C7.56189 25.2937 5.91755 23.2901 4.94654 20.9459C3.97554 18.6017 3.72148 16.0222 4.21649 13.5336C4.7115 11.045 5.93336 8.75903 7.72754 6.96485C9.52173 5.17066 11.8077 3.94881 14.2963 3.45379C16.7849 2.95878 19.3644 3.21284 21.7086 4.18385C24.0528 5.15485 26.0564 6.79919 27.4661 8.90893C28.5776 10.5724 29.2805 12.4663 29.5281 14.4369C29.6386 15.3157 30.3462 16.0364 31.2319 16.0364Z" fill="white"/>
<path d="M20.5345 29.9774C20.7638 30.8329 21.647 31.3481 22.4753 31.0346C24.5465 30.2508 26.4386 29.0442 28.0279 27.4854C29.6172 25.9267 30.8604 24.0583 31.6843 22.0028C32.0138 21.1807 31.5158 20.2876 30.6649 20.0418C29.814 19.796 28.9342 20.2921 28.5842 21.1057C27.927 22.6335 26.9769 24.0239 25.7822 25.1956C24.5875 26.3673 23.1789 27.2903 21.6386 27.9177C20.8183 28.2518 20.3053 29.1219 20.5345 29.9774Z" fill="white"/>
<path d="M23.1336 16.0364C24.0635 16.0364 24.8351 15.2744 24.6412 14.3649C24.4305 13.376 24.0335 12.4308 23.4661 11.5817C22.585 10.2631 21.3328 9.23542 19.8676 8.62855C18.4025 8.02167 16.7903 7.86288 15.2349 8.17226C13.6795 8.48165 12.2508 9.24531 11.1295 10.3667C10.0081 11.488 9.24446 12.9168 8.93508 14.4721C8.6257 16.0275 8.78448 17.6397 9.39136 19.1048C9.99824 20.57 11.0259 21.8222 12.3445 22.7033C13.1936 23.2707 14.1388 23.6677 15.1277 23.8784C16.0372 24.0723 16.7992 23.3007 16.7992 22.3708C16.7992 21.4408 16.0216 20.7148 15.1519 20.3854C14.8242 20.2613 14.5099 20.0999 14.2155 19.9032C13.4507 19.3922 12.8546 18.6659 12.5026 17.8161C12.1507 16.9663 12.0586 16.0312 12.238 15.1291C12.4174 14.227 12.8604 13.3984 13.5108 12.748C14.1612 12.0976 14.9898 11.6547 15.8919 11.4752C16.794 11.2958 17.7291 11.3879 18.5789 11.7399C19.4287 12.0918 20.155 12.6879 20.666 13.4527C20.8627 13.7471 21.0241 14.0614 21.1482 14.3891C21.4776 15.2588 22.2036 16.0364 23.1336 16.0364Z" fill="white"/>
</g>
<defs>
<clipPath id="clip0">
<rect width="122" height="32" fill="white"/>
</clipPath>
</defs>
</svg>
