<svg width="48" height="48" viewBox="0 0 48 48" fill="none" xmlns="http://www.w3.org/2000/svg">
<path d="M14.25 4.125C11.55 4.125 9.375 6.3 9.375 9V42.75C9.375 45.45 11.55 47.625 14.25 47.625H33.75C36.45 47.625 38.625 45.45 38.625 42.75V9C38.625 6.3 36.45 4.125 33.75 4.125H14.25ZM14.25 6.375H33.75C35.2125 6.375 36.375 7.5375 36.375 9V42.75C36.375 44.2125 35.2125 45.375 33.75 45.375H14.25C12.7875 45.375 11.625 44.2125 11.625 42.75V9C11.625 7.5375 12.7875 6.375 14.25 6.375ZM13.875 8.625V11.25L25.3499 15.4124L27.7874 8.625H13.875ZM30.1875 8.625L27.0747 17.25L22.3125 30.3003L34.125 34.6501V8.625H30.1875ZM13.875 13.6501V38.25H17.0251L19.8376 30.5625L24.5625 17.5122L13.875 13.6501ZM21.5625 32.4001L19.4253 38.25H34.125V36.9749C34.0125 36.9749 33.8625 36.9376 33.75 36.9001L21.5625 32.4001ZM24 40.875C23.6022 40.875 23.2206 41.033 22.9393 41.3143C22.658 41.5956 22.5 41.9772 22.5 42.375C22.5 42.7728 22.658 43.1544 22.9393 43.4357C23.2206 43.717 23.6022 43.875 24 43.875C24.3978 43.875 24.7794 43.717 25.0607 43.4357C25.342 43.1544 25.5 42.7728 25.5 42.375C25.5 41.9772 25.342 41.5956 25.0607 41.3143C24.7794 41.033 24.3978 40.875 24 40.875Z" fill="white"/>
</svg>
