<svg width="158" height="32" viewBox="0 0 158 32" fill="none" xmlns="http://www.w3.org/2000/svg">
<path d="M17.4351 0C17.0982 0 16.9298 0.202107 16.9298 0.505265V1.54947C16.9298 1.85263 17.0982 2.05474 17.4351 2.05474H17.6035C19.3214 2.12211 19.894 3.46947 19.894 5.25474V15.6968C19.894 19.7726 18.5129 22.7368 14.6056 22.7368C9.35084 22.7368 8.64347 19.4695 8.64347 15.6968V5.25474C8.64347 3.46947 9.18242 2.12211 10.9003 2.05474H11.1024C11.4393 2.05474 11.6077 1.85263 11.6077 1.54947V0.505265C11.6077 0.202107 11.4393 0 11.1024 0H0.761367C0.424525 0 0.256104 0.202107 0.256104 0.505265V1.54947C0.256104 1.85263 0.424525 2.05474 0.761367 2.05474H0.963472C2.68137 2.12211 3.254 3.46947 3.254 5.25474V16.3705C3.254 22.1979 6.95926 25.7011 13.6287 25.7011C20.3319 25.7011 23.2961 22.1979 23.2961 16.0337V5.25474C23.2961 3.46947 23.835 2.12211 25.5529 2.05474H25.7887C26.0919 2.05474 26.294 1.85263 26.294 1.54947V0.505265C26.294 0.202107 26.0919 0 25.7887 0H17.4351Z" fill="white"/>
<path d="M32.2835 8.05051C32.2835 7.98314 32.2498 7.94946 32.2161 7.94946H32.1487C32.0477 7.94946 31.9129 7.98314 31.8456 8.01682C30.3635 8.69051 28.9824 9.33051 25.6814 9.33051C25.3445 9.33051 25.1761 9.46524 25.1761 9.7684V10.9137C25.1761 11.1495 25.2435 11.3179 25.5803 11.3516C27.4329 11.5537 27.5677 13.4063 27.5677 15.2253V26.7789C27.6014 28.5979 26.7593 29.9789 25.1087 29.9789C24.7719 29.9789 24.6035 30.1474 24.6035 30.4842V31.4947C24.6035 31.8316 24.7719 32 25.1087 32H34.7424C35.0793 32 35.2477 31.8316 35.2477 31.4947V30.4842C35.2477 30.1474 35.0793 29.9789 34.7424 29.9789C33.0919 29.9789 32.2498 28.5979 32.2498 26.7789V24.1179C33.4624 25.1284 34.9445 25.6674 36.6287 25.6674C40.7045 25.6674 44.5108 23.0737 44.5108 16.8421C44.5108 10.3411 40.0645 7.94946 37.0329 7.94946C33.5635 7.94946 32.2498 10.1726 31.8793 11.0484L32.2835 8.05051ZM32.2498 13.1368C32.2498 13.1368 33.0245 10.9474 35.5172 10.9474C38.2793 10.9474 40.1656 13.6084 40.1656 17.9537C40.1656 20.7158 39.2898 23.4779 36.0224 23.4779C33.7993 23.4779 32.5193 21.3895 32.2498 19.3011V13.1368Z" fill="white"/>
<path d="M52.202 8.05051C52.202 7.98314 52.1683 7.94946 52.1346 7.94946H52.0673C51.9662 7.94946 51.8315 7.98314 51.7641 8.01682C50.282 8.69051 48.9009 9.33051 45.5999 9.33051C45.263 9.33051 45.0946 9.46524 45.0946 9.7684V10.9137C45.0946 11.1495 45.162 11.3179 45.4988 11.3516C47.3515 11.5537 47.4862 13.4063 47.4862 15.2253V26.7789C47.5199 28.5979 46.6778 29.9789 45.0273 29.9789C44.6904 29.9789 44.522 30.1474 44.522 30.4842V31.4947C44.522 31.8316 44.6904 32 45.0273 32H54.6609C54.9978 32 55.1662 31.8316 55.1662 31.4947V30.4842C55.1662 30.1474 54.9978 29.9789 54.6609 29.9789C53.0104 29.9789 52.1683 28.5979 52.1683 26.7789V24.1179C53.3809 25.1284 54.863 25.6674 56.5473 25.6674C60.623 25.6674 64.4294 23.0737 64.4294 16.8421C64.4294 10.3411 59.983 7.94946 56.9515 7.94946C53.482 7.94946 52.1683 10.1726 51.7978 11.0484L52.202 8.05051ZM52.1683 13.1368C52.1683 13.1368 52.943 10.9474 55.4357 10.9474C58.1978 10.9474 60.0841 13.6084 60.0841 17.9537C60.0841 20.7158 59.2083 23.4779 55.9409 23.4779C53.7178 23.4779 52.4378 21.3895 52.1683 19.3011V13.1368Z" fill="white"/>
<path d="M80.4246 14.9895C80.6267 14.8884 80.6941 14.7537 80.6941 14.5516C80.6941 12.0253 78.2351 8.05054 73.7551 8.05054C69.8141 8.05054 65.772 10.4421 65.772 16.7074C65.772 21.5916 69.2078 25.6674 74.7994 25.6674C78.2015 25.6674 80.2899 24.1179 81.5362 21.76C81.6373 21.5579 81.772 21.3558 81.772 21.1537C81.772 21.0526 81.7046 20.9516 81.6036 20.9179C80.5257 20.2779 80.492 20.2442 80.2899 20.2442C80.1888 20.2442 80.0541 20.2779 79.9867 20.3789C78.8078 22.0968 77.1236 22.8716 75.7088 22.8716C73.0815 22.8716 71.3973 21.12 70.6562 19.2674L80.4246 14.9895ZM70.252 17.1453C69.9488 16.3705 69.9151 15.2589 69.9151 14.5853C69.9151 12.3958 71.0941 10.7116 72.9467 10.7116C74.4962 10.7116 75.6415 12.2947 75.6415 14.4168L70.252 17.1453Z" fill="white"/>
<path d="M89.8144 7.4442C89.8144 7.37683 89.8144 7.37683 89.7807 7.37683H89.6797C89.646 7.37683 89.5786 7.41052 89.5449 7.47789C88.6355 8.11789 86.0755 9.43157 82.8755 9.93683C82.5386 9.97052 82.4039 10.1053 82.4039 10.3747V11.52C82.3702 11.7558 82.4713 11.9242 82.7744 11.9579C84.6607 12.16 84.7618 14.0126 84.7618 15.8316V20.0421C84.7618 21.8947 83.9871 23.2421 82.3365 23.2421H82.2692C81.9323 23.2421 81.7639 23.4442 81.7639 23.7474V24.7579C81.7639 25.0947 81.9323 25.2632 82.2692 25.2632H92.0376C92.3744 25.2632 92.5428 25.0947 92.5428 24.7579V23.7474C92.5428 23.4442 92.3744 23.2421 92.0376 23.2421H92.0039C90.3534 23.2421 89.5113 21.8947 89.5113 20.0421V13.8442C90.0165 12.6316 91.3639 10.9474 92.8797 10.9474C93.8228 10.9474 94.4965 11.4526 94.4965 12.6653C94.4965 13.1368 94.4292 13.7095 94.1597 14.3832C94.126 14.4842 94.126 14.5853 94.126 14.6526C94.126 14.8547 94.2271 14.9895 94.4292 14.9895C94.4965 14.9895 94.5976 14.9558 94.7323 14.9221L97.8649 13.6084C98.6734 13.2716 98.7407 12.4968 98.7407 11.4863C98.7407 9.1621 97.0565 8.01683 94.9344 8.01683C92.5428 8.01683 90.2523 9.3642 89.006 11.9579L89.8144 7.4442Z" fill="white"/>
<path d="M112.977 20.1095C112.842 20.0421 112.741 20.0084 112.64 20.0084C112.505 20.0084 112.37 20.1095 112.269 20.2779C111.259 21.76 109.81 22.5347 108.497 22.6695C108.295 22.7032 108.092 22.7032 107.89 22.7032C104.488 22.7032 103.276 19.6042 103.276 16.2358C103.276 15.8316 103.309 15.3937 103.343 14.9895C103.545 12.6653 104.556 10.7116 106.711 10.7116C108.699 10.7116 109.575 11.8568 109.44 13.7768L109.406 14.1137C109.406 14.2821 109.507 14.3495 109.676 14.3495C109.777 14.3495 109.844 14.3495 109.979 14.3158L113.852 13.2716C114.088 13.2042 114.223 13.0695 114.223 12.8337V12.6989C113.751 10.5768 112.202 8.35369 108.092 8.08422L107.486 8.05054C103.68 8.05054 99.4357 10.4758 98.9641 16.0674C98.5936 20.8505 101.928 25.6 106.981 25.6C107.284 25.6 107.587 25.5663 107.89 25.5326C111.09 25.2295 112.977 23.6463 114.055 21.4232C114.156 21.1537 114.088 20.9179 113.852 20.7495L112.977 20.1095Z" fill="white"/>
<path d="M133.854 8.95997C133.854 8.62313 133.685 8.45471 133.348 8.45471H126.578C126.275 8.45471 126.073 8.62313 126.073 8.95997V9.9705C126.073 10.2737 126.275 10.4758 126.578 10.4758H126.645C128.296 10.4758 129.138 11.8568 129.138 13.6758V19.8737C128.532 21.2884 126.713 22.7368 125.028 22.7368C122.435 22.7368 122.603 20.5811 122.603 18.7284V8.95997C122.603 8.62313 122.435 8.45471 122.098 8.45471H115.26C114.923 8.45471 114.755 8.62313 114.755 8.95997V9.9705C114.755 10.3074 114.923 10.4758 115.26 10.4758H115.395C117.045 10.4758 117.854 11.8568 117.854 13.6758V19.2337C117.887 22.4337 118.763 25.7011 123.58 25.7011C126.679 25.7011 128.734 23.2758 129.677 21.3558L129.172 25.6C129.138 25.6674 129.172 25.7011 129.205 25.7011H129.273C129.374 25.7011 129.508 25.6674 129.576 25.6337C131.092 24.9937 132.439 24.3537 135.74 24.3537C136.077 24.3537 136.245 24.1853 136.245 23.9158V22.7705C136.245 22.5347 136.178 22.3663 135.841 22.3326C133.988 22.1305 133.854 20.2779 133.854 18.4589V8.95997Z" fill="white"/>
<path d="M148.09 21.9958C147.989 21.8274 147.855 21.7263 147.686 21.7263C147.619 21.7263 147.518 21.76 147.383 21.8274L147.349 21.8611C146.676 22.2989 145.732 22.8042 144.958 22.8042C144.183 22.8042 143.577 22.2653 143.577 20.5137V10.88H148.057C148.393 10.88 148.562 10.7116 148.562 10.3747V8.92629C148.562 8.62313 148.393 8.42102 148.057 8.42102H143.543V2.76208C143.543 2.72839 143.509 2.72839 143.476 2.72839H143.408C143.375 2.72839 143.307 2.76208 143.273 2.79576C141.892 3.97471 140.107 5.0526 139.13 5.55787C138.895 5.6926 138.827 5.92839 138.827 6.19786V8.42102H136.402C136.065 8.42102 135.897 8.62313 135.897 8.92629V9.93681C135.897 10.2737 136.065 10.4421 136.402 10.4421C138.827 10.4421 138.827 12.4968 138.827 14.2821V20.5137C138.827 24.4884 140.646 25.7011 142.735 25.7011C144.419 25.7011 146.271 24.9263 147.45 24.1853L148.461 23.5453C148.629 23.4442 148.73 23.3095 148.73 23.1411C148.73 23.04 148.697 22.9389 148.629 22.8379L148.09 21.9958Z" fill="white"/>
<path d="M151.438 21.3558C151 21.76 150.798 22.1979 150.798 22.6695C150.798 23.1074 151 23.5453 151.438 23.9495L152.752 25.2632C153.19 25.7011 153.628 25.9032 154.066 25.9032C154.503 25.9032 154.941 25.7011 155.379 25.2632L156.693 23.9495C157.131 23.5453 157.333 23.1074 157.333 22.6695C157.333 22.1979 157.131 21.76 156.693 21.3558L155.379 20.0421C154.941 19.6042 154.503 19.4021 154.066 19.4021C153.628 19.4021 153.19 19.6042 152.752 20.0084L151.438 21.3558Z" fill="white"/>
</svg>
