<svg width="48" height="48" viewBox="0 0 48 48" fill="none" xmlns="http://www.w3.org/2000/svg">
<path d="M23.9999 5.25C18.4499 5.25 13.7249 8.92529 12.1874 13.9878C8.5499 14.6253 5.8124 17.8125 5.8124 21.5625C5.8124 23.8875 6.86225 26.0626 8.66225 27.5251C8.88725 27.7126 9.1124 27.7874 9.3749 27.7874C9.7124 27.7874 10.0127 27.6375 10.2377 27.375C10.6127 26.8875 10.5375 26.1753 10.0875 25.8003C8.81255 24.7503 8.0624 23.2124 8.0624 21.5999C8.0624 19.2749 9.56225 17.25 11.6623 16.5C11.6248 16.875 11.5875 17.2872 11.5875 17.6997V27.4124C11.5875 28.7249 12.1121 29.9628 13.0121 30.8628C13.9496 31.8003 15.15 32.2874 16.4625 32.2874H16.5373C13.4623 33.7874 10.7996 36.1872 9.07461 39.2622C8.77461 39.7872 8.96269 40.5003 9.48769 40.8003C9.67519 40.9128 9.86269 40.9497 10.0502 40.9497C10.4252 40.9497 10.8375 40.7622 11.025 40.3872C13.65 35.7372 18.6 32.8499 23.9625 32.8499C29.2875 32.8499 34.2375 35.7372 36.9 40.3872C37.2 40.9122 37.9124 41.1003 38.4374 40.8003C38.9624 40.5003 39.1498 39.8247 38.8498 39.2622C37.1248 36.1122 34.4996 33.7126 31.3871 32.2126H31.5373C32.8498 32.2126 34.0502 31.6874 34.9877 30.7874C35.4752 30.2999 35.8502 29.7 36.1127 29.0625C39.6002 28.3125 42.1874 25.2375 42.1874 21.5625C42.1874 19.2375 41.1749 17.0997 39.3749 15.6372C38.8874 15.2247 38.1752 15.2999 37.8002 15.7874C37.4252 16.2749 37.4621 16.9878 37.9496 17.3628C39.2246 18.4128 39.9374 19.9125 39.9374 21.5625C39.9374 23.8875 38.4748 25.875 36.4123 26.625L36.3749 17.625C36.3749 10.8 30.8249 5.25 23.9999 5.25ZM17.3165 12.2065C17.689 12.2252 18.0373 12.4219 18.2248 12.75L18.6752 13.4253C19.9127 15.1878 21.9373 16.6875 24.4123 17.4375C26.4373 18.075 28.4623 18.1128 30.2248 17.7378C30.8623 17.6253 31.4999 18.075 31.4999 18.75C31.4999 22.9875 27.9748 26.4375 23.6623 26.25C19.8748 26.0625 16.7249 22.9874 16.4999 19.1624C16.4249 18.0374 16.65 16.9499 17.025 15.9749C17.175 15.5999 17.1373 15.2247 16.9123 14.8872C16.6873 14.5872 16.4999 14.2872 16.3124 13.9497C16.0124 13.4247 16.125 12.7125 16.65 12.375C16.861 12.2484 17.0931 12.1953 17.3165 12.2065ZM9.67593 32.0662C9.60078 32.0701 9.52461 32.0811 9.44961 32.0999C5.62461 33.1874 2.3249 35.775 0.3749 39.1875C0.0749001 39.75 0.262254 40.4249 0.787254 40.7249C0.974754 40.8374 1.16225 40.875 1.34975 40.875C1.72475 40.875 2.13711 40.6875 2.32461 40.3125C3.97461 37.3875 6.78769 35.1751 10.0502 34.2751C10.6502 34.1251 10.9875 33.4872 10.8375 32.8872C10.7063 32.3622 10.202 32.0385 9.67593 32.0662ZM38.3239 32.0662C37.7979 32.0385 37.2935 32.3622 37.1623 32.8872C37.0123 33.4872 37.3496 34.1251 37.9496 34.2751C41.1746 35.1751 43.9877 37.3875 45.6752 40.3125C45.9002 40.6875 46.275 40.875 46.65 40.875C46.8375 40.875 47.025 40.8374 47.2125 40.7249C47.7375 40.4249 47.9249 39.75 47.6249 39.1875C45.6749 35.775 42.3752 33.1874 38.5502 32.0999C38.4752 32.0811 38.399 32.0701 38.3239 32.0662Z" fill="white"/>
</svg>
