<svg width="683" height="683" viewBox="0 0 683 683" fill="none" xmlns="http://www.w3.org/2000/svg">
<path d="M258 244L388 232.5L476 423V592.5L221 621L195 423L258 244Z" fill="url(#paint0_linear_4_2)"/>
<path d="M427.6 33.2C417.733 43.7333 411.733 55.0667 409.2 67.7333C406.267 83.4667 409.2 97.2 421.867 124.667C428.133 138.667 431.2 149.467 432.8 163.6C433.2 168.267 434 172 434.533 172C435.867 171.867 443.6 160.933 447.067 154C454.133 139.867 456.667 128.533 456.667 111.333C456.667 95.6 456.533 94.9333 449.733 74.5333C443.333 55.4667 441.467 47.6 439.333 30.2667C438.933 26.8 438 24 437.467 24C436.8 24 432.4 28.1333 427.6 33.2Z" fill="#D10028"/>
<path d="M376.667 46.0001C322.133 74.0001 270.667 122.8 248 167.867C242.267 179.333 235.333 201.067 232.667 215.6C227.867 242 228.667 278.267 234.667 307.6C236.133 314.533 237.333 320.667 237.333 321.2C237.333 321.6 235.733 319.333 233.733 316C227.333 305.067 219.2 295.467 206.933 284.267C197.6 275.867 193.733 271.2 190.667 264.933C185.2 253.867 183.2 241.333 184.933 230.4C185.733 225.733 186.267 221.867 186.133 221.733C185.733 221.2 170.267 241.867 162.267 253.733C121.867 314.133 100.667 379.6 103.067 436C104.4 464.4 112.4 494.667 126.4 524.267C155.2 585.2 207.867 630.4 272.533 649.867C293.6 656.267 309.467 658.8 334.133 659.6C404.267 662 468.267 636 516.667 585.067C546.133 554.267 566.8 514.667 576 471.333C579.6 454.533 581.067 418 578.8 400.667C572.133 349.867 553.733 303.733 520.667 254C504.8 230.267 477.2 195.733 475.333 197.6C475.067 197.867 475.333 201.467 476 205.467C476.667 209.333 477.733 224 478.133 238C479.2 266.667 477.733 280.8 472.4 297.867C469.067 308.4 459.867 328.4 457.6 329.867C457.067 330.133 457.333 325.333 458.4 318.933C461.067 301.2 459.867 262.267 456.133 249.6C450.533 230.533 441.6 215.733 417.067 185.067C407.733 173.6 397.867 160.133 394.933 155.067C377.733 125.467 375.733 91.6001 388.933 50.2667C390.667 44.5334 392 39.4667 391.6 39.2001C391.333 38.9334 384.667 42.0001 376.667 46.0001ZM357.2 289.867C364.533 316.267 374.533 332.533 400.8 360.133C434.4 395.6 448.8 418.667 457.6 451.2C460.133 460.267 460.533 465.6 460.533 484C460.667 509.467 459.2 516.267 450 535.333C429.333 578.267 389.067 604 342.667 604C310.667 604 283.333 592.533 260.133 569.333C240.267 549.2 229.333 527.867 224.667 499.733C222.133 484.267 220.667 456.8 222 449.867L222.933 444.667L225.6 451.333C232.133 467.733 245.333 482.533 260.267 490.133L266.8 493.467L261.333 485.6C248.8 467.2 243.733 449.733 243.467 424.667C243.333 406.4 245.6 393.067 250.933 379.333C263.333 347.6 289.867 311.467 329.333 272L352.667 248.667L353.467 264C354 273.333 355.333 283.467 357.2 289.867Z" fill="#D10028"/>
<path d="M243.333 62.6667C237.6 80.2667 231.6 89.2 213.2 107.2C199.2 120.933 194.933 126 191.867 132.667C183.067 151.333 186.4 176 200.4 195.467L206 203.333L207.067 197.333C212.133 169.867 216.133 160.533 231.333 140.667C248.667 117.867 254.267 102.667 253.067 81.0667C252.667 73.0667 251.6 68 249.2 62.6667L245.733 55.3334L243.333 62.6667Z" fill="#D10028"/>
<defs>
<linearGradient id="paint0_linear_4_2" x1="237" y1="376.5" x2="455.5" y2="525.5" gradientUnits="userSpaceOnUse">
<stop stop-color="#FFA91A"/>
<stop offset="0.556074" stop-color="#F79219"/>
<stop offset="0.892921" stop-color="#EF7816"/>
</linearGradient>
</defs>
</svg>
